<svg width="19" height="19" viewBox="0 0 19 19" fill="none" xmlns="http://www.w3.org/2000/svg">
<path fill-rule="evenodd" clip-rule="evenodd" d="M9.39201 0.470112C11.7869 0.470112 14.0837 1.42148 15.7771 3.11492C17.4706 4.80837 18.422 7.10517 18.422 9.50006C18.422 11.895 17.4706 14.1918 15.7771 15.8852C14.0837 17.5786 11.7869 18.53 9.39201 18.53C6.99712 18.53 4.70032 17.5786 3.00687 15.8852C1.31343 14.1918 0.362061 11.895 0.362061 9.50006C0.362061 7.10517 1.31343 4.80837 3.00687 3.11492C4.70032 1.42148 6.99712 0.470112 9.39201 0.470112V0.470112ZM16.1909 6.027C15.2999 4.29465 13.7837 2.96573 11.9496 2.30944C12.5664 3.47639 13.0123 4.72669 13.2735 6.027H16.1909ZM16.9994 10.1877C17.0216 9.95918 17.0327 9.72969 17.0327 9.50006C17.0313 8.79508 16.9318 8.09373 16.7368 7.41623H13.4833C13.5277 7.87606 13.5597 8.33867 13.5597 8.80545C13.5568 9.7388 13.4609 10.6696 13.2735 11.5839H16.7368C16.8688 11.1268 16.9563 10.6601 17.0008 10.1877H16.9994ZM12.0885 10.1877L12.0968 10.1169C12.1442 9.68132 12.1688 9.24358 12.1705 8.80545C12.1611 8.34077 12.1259 7.87698 12.0649 7.41623H6.71914C6.65763 7.87692 6.62238 8.34075 6.61356 8.80545C6.61696 9.7408 6.72554 10.6728 6.93725 11.5839H11.8468C11.9537 11.1227 12.0343 10.6573 12.0885 10.1877V10.1877ZM11.8218 6.027C11.4945 4.55769 10.9038 3.1598 10.0783 1.90101C9.85045 1.88156 9.62262 1.85933 9.39201 1.85933C9.2473 1.86004 9.10268 1.86699 8.95857 1.88017L8.70573 1.90101L8.6974 1.9149C7.87626 3.17001 7.28846 4.56305 6.96226 6.027H11.8218ZM5.51052 6.027C5.77699 4.72759 6.22895 3.47325 6.85251 2.3025C5.01038 2.95654 3.48707 4.28857 2.59315 6.027H5.51052V6.027ZM2.04719 7.41623C1.85255 8.09379 1.75296 8.7951 1.75128 9.50006C1.75296 10.205 1.85255 10.9063 2.04719 11.5839H5.51052C5.32218 10.6697 5.2263 9.73885 5.22434 8.80545C5.22434 8.33867 5.25629 7.87606 5.30075 7.41623H2.04719ZM5.87311 12.9731H2.59454C3.11969 13.9989 3.86946 14.893 4.78804 15.5888C5.70662 16.2847 6.77033 16.7644 7.89998 16.9921C7.01086 15.7713 6.32629 14.4139 5.87311 12.9731ZM9.39201 16.6462C10.2803 15.5475 10.9747 14.3053 11.4453 12.9731H7.33874C7.80932 14.3053 8.5037 15.5475 9.39201 16.6462ZM12.9109 12.9731C12.4577 14.4138 11.7731 15.7712 10.884 16.9921C12.0136 16.7642 13.0772 16.2844 13.9958 15.5886C14.9143 14.8928 15.6642 13.9988 16.1895 12.9731H12.9109V12.9731Z" fill="#F0B18F"/>
</svg>
