<svg width="43" height="43" viewBox="0 0 43 43" fill="none" xmlns="http://www.w3.org/2000/svg">
<rect x="0.00512695" y="0.113342" width="42.7734" height="42.7734" rx="15" fill="#FFEFE6"/>
<path fill-rule="evenodd" clip-rule="evenodd" d="M21.392 12.4701C23.7869 12.4701 26.0837 13.4215 27.7771 15.1149C29.4706 16.8084 30.422 19.1052 30.422 21.5001C30.422 23.895 29.4706 26.1918 27.7771 27.8852C26.0837 29.5786 23.7869 30.53 21.392 30.53C18.9971 30.53 16.7003 29.5786 15.0069 27.8852C13.3134 26.1918 12.3621 23.895 12.3621 21.5001C12.3621 19.1052 13.3134 16.8084 15.0069 15.1149C16.7003 13.4215 18.9971 12.4701 21.392 12.4701V12.4701ZM28.1909 18.027C27.2999 16.2947 25.7837 14.9657 23.9496 14.3094C24.5664 15.4764 25.0123 16.7267 25.2735 18.027H28.1909ZM28.9994 22.1877C29.0216 21.9592 29.0327 21.7297 29.0327 21.5001C29.0313 20.7951 28.9318 20.0937 28.7368 19.4162H25.4833C25.5277 19.8761 25.5597 20.3387 25.5597 20.8054C25.5568 21.7388 25.4609 22.6696 25.2735 23.5839H28.7368C28.8688 23.1268 28.9563 22.6601 29.0008 22.1877H28.9994ZM24.0885 22.1877L24.0968 22.1169C24.1442 21.6813 24.1688 21.2436 24.1705 20.8054C24.1611 20.3408 24.1259 19.877 24.0649 19.4162H18.7191C18.6576 19.8769 18.6224 20.3407 18.6136 20.8054C18.617 21.7408 18.7255 22.6728 18.9373 23.5839H23.8468C23.9537 23.1227 24.0343 22.6573 24.0885 22.1877V22.1877ZM23.8218 18.027C23.4945 16.5577 22.9038 15.1598 22.0783 13.901C21.8505 13.8816 21.6226 13.8593 21.392 13.8593C21.2473 13.86 21.1027 13.867 20.9586 13.8802L20.7057 13.901L20.6974 13.9149C19.8763 15.17 19.2885 16.5631 18.9623 18.027H23.8218ZM17.5105 18.027C17.777 16.7276 18.2289 15.4732 18.8525 14.3025C17.0104 14.9565 15.4871 16.2886 14.5932 18.027H17.5105V18.027ZM14.0472 19.4162C13.8525 20.0938 13.753 20.7951 13.7513 21.5001C13.753 22.205 13.8525 22.9063 14.0472 23.5839H17.5105C17.3222 22.6697 17.2263 21.7389 17.2243 20.8054C17.2243 20.3387 17.2563 19.8761 17.3007 19.4162H14.0472ZM17.8731 24.9731H14.5945C15.1197 25.9989 15.8695 26.893 16.788 27.5888C17.7066 28.2847 18.7703 28.7644 19.9 28.9921C19.0109 27.7713 18.3263 26.4139 17.8731 24.9731ZM21.392 28.6462C22.2803 27.5475 22.9747 26.3053 23.4453 24.9731H19.3387C19.8093 26.3053 20.5037 27.5475 21.392 28.6462ZM24.9109 24.9731C24.4577 26.4138 23.7731 27.7712 22.884 28.9921C24.0136 28.7642 25.0772 28.2844 25.9958 27.5886C26.9143 26.8928 27.6642 25.9988 28.1895 24.9731H24.9109V24.9731Z" fill="#F0B18F"/>
</svg>
