<svg width="43" height="43" viewBox="0 0 43 43" fill="none" xmlns="http://www.w3.org/2000/svg">
<rect y="0.113342" width="42.7734" height="42.7734" rx="15" fill="#E7EDFF"/>
<path d="M21.862 11.5196C16.6151 11.5196 12.3568 15.7779 12.3568 21.0248C12.3568 26.2717 16.6151 30.53 21.862 30.53H26.6146V28.629H21.862C17.7368 28.629 14.2579 25.1501 14.2579 21.0248C14.2579 16.8995 17.7368 13.4206 21.862 13.4206C25.9873 13.4206 29.4662 16.8995 29.4662 21.0248V22.384C29.4662 23.135 28.7913 23.8764 28.0404 23.8764C27.2895 23.8764 26.6146 23.135 26.6146 22.384V21.0248C26.6146 18.4014 24.4855 16.2722 21.862 16.2722C19.2386 16.2722 17.1094 18.4014 17.1094 21.0248C17.1094 23.6482 19.2386 25.7774 21.862 25.7774C23.1737 25.7774 24.3714 25.2451 25.2269 24.3801C25.8447 25.2261 26.9093 25.7774 28.0404 25.7774C29.9129 25.7774 31.3672 24.2566 31.3672 22.384V21.0248C31.3672 15.7779 27.1089 11.5196 21.862 11.5196ZM21.862 23.8764C20.2842 23.8764 19.0105 22.6027 19.0105 21.0248C19.0105 19.4469 20.2842 18.1732 21.862 18.1732C23.4399 18.1732 24.7136 19.4469 24.7136 21.0248C24.7136 22.6027 23.4399 23.8764 21.862 23.8764Z" fill="#8494C1"/>
</svg>
