<svg width="80" height="80" viewBox="0 0 80 80" fill="none" xmlns="http://www.w3.org/2000/svg">
<rect opacity="0.1" x="-6.10352e-05" width="79.7931" height="79.7931" rx="30" fill="#DB4446"/>
<path d="M39.9999 23C30.5989 23 22.9999 30.599 22.9999 40C22.9999 49.401 30.5989 57 39.9999 57C49.4009 57 56.9999 49.401 56.9999 40C56.9999 30.599 49.4009 23 39.9999 23ZM39.9999 53.6C32.5029 53.6 26.3999 47.497 26.3999 40C26.3999 32.503 32.5029 26.4 39.9999 26.4C47.4969 26.4 53.5999 32.503 53.5999 40C53.5999 47.497 47.4969 53.6 39.9999 53.6ZM46.1029 31.5L39.9999 37.603L33.8969 31.5L31.4999 33.897L37.6029 40L31.4999 46.103L33.8969 48.5L39.9999 42.397L46.1029 48.5L48.4999 46.103L42.3969 40L48.4999 33.897L46.1029 31.5Z" fill="#D96669"/>
</svg>
