<svg width="43" height="43" viewBox="0 0 43 43" fill="none" xmlns="http://www.w3.org/2000/svg">
<rect y="0.0325928" width="42.7734" height="42.7734" rx="15" fill="#FFF5D9"/>
<path fill-rule="evenodd" clip-rule="evenodd" d="M13.3073 20.944C13.3073 18.6752 14.2085 16.4993 15.8129 14.8949C17.4172 13.2906 19.5931 12.3893 21.8619 12.3893C24.1308 12.3893 26.3067 13.2906 27.911 14.8949C29.5153 16.4993 30.4166 18.6752 30.4166 20.944C30.4166 23.2129 29.5153 25.3888 27.911 26.9931C26.3067 28.5974 24.1308 29.4987 21.8619 29.4987C19.5931 29.4987 17.4172 28.5974 15.8129 26.9931C14.2085 25.3888 13.3073 23.2129 13.3073 20.944V20.944ZM21.8619 13.4587C20.4523 13.4587 19.0714 13.8568 17.878 14.6072C16.6847 15.3575 15.7275 16.4295 15.1165 17.6999C14.5056 18.9702 14.2658 20.3873 14.4247 21.7879C14.5836 23.1885 15.1348 24.5158 16.0148 25.617C16.774 24.3937 18.4454 23.0827 21.8619 23.0827C25.2785 23.0827 26.9488 24.3926 27.7091 25.617C28.5891 24.5158 29.1403 23.1885 29.2992 21.7879C29.4581 20.3873 29.2183 18.9702 28.6073 17.6999C27.9964 16.4295 27.0392 15.3575 25.8459 14.6072C24.6525 13.8568 23.2716 13.4587 21.8619 13.4587V13.4587Z" fill="#D5B251"/>
<path d="M25.0699 18.8053C25.0699 19.6562 24.732 20.4721 24.1303 21.0737C23.5287 21.6754 22.7128 22.0134 21.8619 22.0134C21.0111 22.0134 20.1952 21.6754 19.5935 21.0737C18.9919 20.4721 18.6539 19.6562 18.6539 18.8053C18.6539 17.9545 18.9919 17.1386 19.5935 16.5369C20.1952 15.9353 21.0111 15.5973 21.8619 15.5973C22.7128 15.5973 23.5287 15.9353 24.1303 16.5369C24.732 17.1386 25.0699 17.9545 25.0699 18.8053V18.8053Z" fill="#D5B251"/>
</svg>
