<svg width="43" height="43" viewBox="0 0 43 43" fill="none" xmlns="http://www.w3.org/2000/svg">
<rect y="0.194031" width="42.7734" height="42.7734" rx="15" fill="#FFE0EB"/>
<path d="M20.4875 15.6305L17.2719 11.9187C16.9012 11.491 16.2216 11.4929 15.791 11.9244L13.1467 14.5735C12.3596 15.3615 12.1344 16.5316 12.5897 17.4698C15.3097 23.1016 19.8517 27.6499 25.4797 30.3779C26.4169 30.8332 27.586 30.6079 28.3731 29.8199L31.0421 27.1461C31.4746 26.7136 31.4756 26.0302 31.044 25.6595L27.318 22.461C26.9283 22.1264 26.3228 22.1701 25.9321 22.5617L24.6356 23.8601C24.5692 23.9297 24.4819 23.9756 24.3869 23.9907C24.292 24.0058 24.1947 23.9893 24.11 23.9438C21.9907 22.7234 20.2328 20.9632 19.0152 18.8423C18.9696 18.7575 18.9531 18.6601 18.9682 18.5649C18.9833 18.4698 19.0292 18.3823 19.0988 18.3157L20.3915 17.0221C20.7832 16.6286 20.8259 16.0202 20.4875 15.6296V15.6305Z" stroke="#EEB3C8" stroke-width="2" stroke-linecap="round" stroke-linejoin="round"/>
</svg>
