<svg width="80" height="80" viewBox="0 0 80 80" fill="none" xmlns="http://www.w3.org/2000/svg">
<rect opacity="0.1" x="0.167847" width="79.7931" height="79.7931" rx="30" fill="#8A9AC5"/>
<path d="M25.5999 42.6824L41.7999 42.6842C42.7081 42.6839 43.5829 43.0249 44.2489 43.6389C44.9148 44.2528 45.3228 45.0944 45.3909 45.9947L45.3999 46.2632V48.9474C45.3981 55.2105 38.7111 57 33.6999 57C28.8003 57 22.2969 55.2893 22.0089 49.3589L21.9999 48.9474V46.2614C21.9999 44.3753 23.4687 42.8292 25.3299 42.6914L25.5999 42.6842V42.6824ZM45.7959 42.6842H54.3999C56.2971 42.6842 57.8523 44.1444 57.9891 45.9947L57.9999 46.2632V48.0526C57.9981 53.532 52.8555 55.2105 48.9999 55.2105C47.6939 55.2136 46.3951 55.0193 45.1479 54.6343C45.7527 53.9436 46.2405 53.1544 46.5915 52.2597C47.3821 52.4353 48.1897 52.5248 48.9999 52.5263L49.4805 52.5156C51.2535 52.4386 55.0353 51.866 55.2873 48.4195L55.2999 48.0526V46.2632C55.2996 46.0538 55.2257 45.8512 55.0909 45.6904C54.9561 45.5296 54.7689 45.4208 54.5619 45.3827L54.3999 45.3684H47.1081C46.9592 44.4924 46.5909 43.6678 46.0371 42.9705L45.7959 42.6842H54.3999H45.7959V42.6842ZM25.5999 45.3666L25.4199 45.3845C25.2471 45.4203 25.0884 45.5048 24.9627 45.6279C24.8388 45.7521 24.7538 45.9094 24.7179 46.0806L24.6999 46.2614V48.9474C24.6999 50.7529 25.5099 52.0288 27.2505 52.9594C28.7373 53.7557 30.8559 54.2371 33.1293 54.3068L33.6999 54.3158L34.2705 54.3068C36.5439 54.2371 38.6607 53.7557 40.1493 52.9594C41.7801 52.0861 42.5955 50.9104 42.6909 49.2784L42.6999 48.9456V46.2632C42.6996 46.0538 42.6257 45.8512 42.4909 45.6904C42.3561 45.5296 42.1689 45.4208 41.9619 45.3827L41.7999 45.3684L25.5999 45.3666ZM33.6999 23C35.8481 23 37.9084 23.8484 39.4274 25.3586C40.9465 26.8687 41.7999 28.9169 41.7999 31.0526C41.7999 33.1883 40.9465 35.2365 39.4274 36.7467C37.9084 38.2569 35.8481 39.1053 33.6999 39.1053C31.5516 39.1053 29.4914 38.2569 27.9723 36.7467C26.4533 35.2365 25.5999 33.1883 25.5999 31.0526C25.5999 28.9169 26.4533 26.8687 27.9723 25.3586C29.4914 23.8484 31.5516 23 33.6999 23V23ZM49.8999 26.5789C51.5707 26.5789 53.1732 27.2388 54.3547 28.4134C55.5361 29.588 56.1999 31.181 56.1999 32.8421C56.1999 34.5032 55.5361 36.0963 54.3547 37.2708C53.1732 38.4454 51.5707 39.1053 49.8999 39.1053C48.229 39.1053 46.6266 38.4454 45.4451 37.2708C44.2636 36.0963 43.5999 34.5032 43.5999 32.8421C43.5999 31.181 44.2636 29.588 45.4451 28.4134C46.6266 27.2388 48.229 26.5789 49.8999 26.5789ZM33.6999 25.6842C30.7227 25.6842 28.2999 28.0928 28.2999 31.0526C28.2999 34.0124 30.7227 36.4211 33.6999 36.4211C36.6771 36.4211 39.0999 34.0124 39.0999 31.0526C39.0999 28.0928 36.6771 25.6842 33.6999 25.6842ZM49.8999 29.2632C47.9145 29.2632 46.2999 30.8683 46.2999 32.8421C46.2999 34.8159 47.9145 36.4211 49.8999 36.4211C51.8853 36.4211 53.4999 34.8159 53.4999 32.8421C53.4999 30.8683 51.8853 29.2632 49.8999 29.2632Z" fill="#99A5BD"/>
</svg>
