<svg width="32" height="32" viewBox="0 0 32 32" fill="none" xmlns="http://www.w3.org/2000/svg">
<path d="M26.6667 16C26.6667 14.5333 27.8667 13.3333 29.3334 13.3333V7.99998C29.3334 6.53331 28.1334 5.33331 26.6667 5.33331H5.33341C3.86675 5.33331 2.68008 6.53331 2.68008 7.99998V13.3333C4.14675 13.3333 5.33341 14.5333 5.33341 16C5.33341 17.4666 4.14675 18.6666 2.66675 18.6666V24C2.66675 25.4666 3.86675 26.6666 5.33341 26.6666H26.6667C28.1334 26.6666 29.3334 25.4666 29.3334 24V18.6666C27.8667 18.6666 26.6667 17.4666 26.6667 16ZM20.7734 22.4L16.0001 19.3333L11.2267 22.4L12.6667 16.9066L8.28008 13.32L13.9334 12.9866L16.0001 7.73331L18.0534 13L23.7067 13.3333L19.3201 16.92L20.7734 22.4Z" fill="#1E88E5"/>
</svg>
