<svg width="30" height="45" viewBox="0 0 30 45" fill="none" xmlns="http://www.w3.org/2000/svg">
<g clip-path="url(#clip0)">
<path d="M8.79117 16.1855C8.41781 15.847 7.89021 15.7019 7.37736 15.8497C6.8645 15.9972 6.49389 16.401 6.35596 16.8866C6.72932 17.2251 7.25686 17.3701 7.76978 17.2223C8.28221 17.0748 8.65324 16.671 8.79117 16.1855Z" fill="#33BBBD"/>
<path d="M12.874 6.75806C13.2569 6.64828 13.5756 6.35341 13.6921 5.94555C13.8086 5.53771 13.6941 5.11837 13.4269 4.8215C13.0441 4.93129 12.7254 5.22618 12.6092 5.63402C12.4927 6.04189 12.6069 6.46121 12.874 6.75806Z" fill="#F36518"/>
<path d="M19.2959 2.63605C19.0145 2.45888 18.6554 2.42558 18.3387 2.58055C18.0224 2.73553 17.8274 3.04032 17.793 3.37207C18.0744 3.54884 18.4338 3.58253 18.7501 3.42756C19.0668 3.27259 19.2618 2.96739 19.2959 2.63605Z" fill="#8FD123"/>
<path d="M12.4393 0.945343C12.1254 1.05355 11.8729 1.31276 11.794 1.65719C11.7147 2.00161 11.8281 2.34565 12.0632 2.58108C12.377 2.47287 12.6295 2.21366 12.7084 1.86923C12.7877 1.52481 12.6743 1.18078 12.4393 0.945343Z" fill="#8FD123"/>
<path d="M7.23522 13.6953C7.08063 13.2145 6.69582 12.8246 6.17817 12.6946C5.66053 12.565 5.13854 12.7287 4.77707 13.0798C4.93204 13.5606 5.3165 13.951 5.83413 14.0806C6.35176 14.2102 6.87379 14.0465 7.23522 13.6953Z" fill="#F36518"/>
<path d="M23.3435 5.93749C22.9702 5.59901 22.4426 5.45394 21.9298 5.60138C21.4169 5.74922 21.0463 6.15309 20.9084 6.63862C21.2817 6.9771 21.8093 7.12217 22.3221 6.97435C22.8346 6.82688 23.2056 6.42302 23.3435 5.93749Z" fill="#8FD123"/>
<path d="M17.2733 5.69879C16.7973 5.86249 16.4152 6.25524 16.2955 6.77727C16.1754 7.29923 16.347 7.82048 16.7033 8.17719C17.1793 8.01349 17.5614 7.62071 17.6811 7.09868C17.8012 6.57671 17.6296 6.05553 17.2733 5.69879Z" fill="#33BBBD"/>
<path d="M11.4818 8.65709C11.5139 8.20367 11.3241 7.74786 10.9357 7.46444C10.5473 7.18108 10.0566 7.14063 9.63725 7.31146C9.60514 7.76488 9.79496 8.22069 10.1834 8.50411C10.5718 8.78747 11.0625 8.82792 11.4818 8.65709Z" fill="#8FD123"/>
<path d="M7.66143 7.60877C7.69037 7.20053 7.51954 6.79032 7.16996 6.53548C6.82039 6.28021 6.37884 6.24378 6.00152 6.39754C5.97219 6.80578 6.143 7.21599 6.49257 7.47125C6.84256 7.72609 7.28369 7.76258 7.66143 7.60877Z" fill="#33BBBD"/>
<path d="M8.81969 2.42354C8.74042 2.92214 8.90652 3.44532 9.30918 3.79689C9.7119 4.14844 10.2509 4.2408 10.7317 4.09217C10.811 3.59356 10.6449 3.07037 10.2422 2.71882C9.83953 2.36765 9.30049 2.2753 8.81969 2.42354Z" fill="#8FD123"/>
<path d="M14.6281 1.02509C14.3424 1.50071 14.2972 2.10315 14.5635 2.62832C14.8303 3.15309 15.3419 3.47056 15.8933 3.51812C16.179 3.0425 16.2242 2.44006 15.9579 1.91489C15.6915 1.39012 15.1794 1.07265 14.6281 1.02509Z" fill="#33BBBD"/>
<path d="M21.8698 2.35725C21.4696 2.31444 21.0605 2.46941 20.7977 2.80711C20.5349 3.1448 20.4838 3.58118 20.6221 3.96088C21.0221 4.00369 21.4315 3.84831 21.6943 3.51063C21.9571 3.17294 22.0082 2.73656 21.8698 2.35725Z" fill="#F36518"/>
<path d="M18.9106 0.264343C18.5099 0.298825 18.1373 0.529897 17.9435 0.911581C17.7497 1.29327 17.7826 1.73163 17.9906 2.07764C18.3914 2.04276 18.764 1.81209 18.9574 1.43041C19.1512 1.04832 19.1183 0.610357 18.9106 0.264343Z" fill="#8FD123"/>
<path d="M6.19729 10.573C6.22941 10.1195 6.03953 9.66373 5.65111 9.38037C5.26269 9.097 4.77201 9.05656 4.35267 9.22739C4.32057 9.6808 4.51042 10.1366 4.89884 10.42C5.28727 10.7034 5.77794 10.7438 6.19729 10.573Z" fill="#8FD123"/>
<path d="M20.2963 9.74524C19.9395 9.86813 19.653 10.1626 19.5627 10.5542C19.4726 10.9458 19.6015 11.3366 19.869 11.6041C20.2257 11.4812 20.5123 11.1868 20.6023 10.7952C20.6923 10.4036 20.5634 10.0128 20.2963 9.74524Z" fill="#F36518"/>
<path d="M25.2923 10.4117C25.0124 10.1577 24.6165 10.0491 24.232 10.1596C23.8476 10.2706 23.5693 10.5735 23.4659 10.9377C23.7457 11.1914 24.1413 11.3004 24.5261 11.1894C24.9106 11.0788 25.1889 10.776 25.2923 10.4117Z" fill="#8FD123"/>
<path d="M9.40009 11.6999C9.76195 11.6999 10.0556 11.4054 10.0556 11.042C10.0556 10.6785 9.76195 10.3836 9.40009 10.3836C9.03824 10.3836 8.74451 10.6785 8.74451 11.042C8.74451 11.4054 9.03824 11.6999 9.40009 11.6999Z" fill="#33BBBD"/>
<path d="M6.7729 4.78124C7.09869 4.78124 7.36269 4.51609 7.36269 4.1891C7.36269 3.86211 7.09869 3.59656 6.7729 3.59656C6.44711 3.59656 6.18317 3.86211 6.18317 4.1891C6.18317 4.51609 6.44711 4.78124 6.7729 4.78124Z" fill="#F36518"/>
<path d="M18.1819 5.33551C18.5078 5.33551 18.7717 5.07035 18.7717 4.74336C18.7717 4.41637 18.5078 4.15121 18.1819 4.15121C17.8561 4.15121 17.5922 4.41637 17.5922 4.74336C17.5922 5.07035 17.8561 5.33551 18.1819 5.33551Z" fill="#F36518"/>
<path d="M22.2066 17.3652C22.5974 17.3652 22.9145 17.0469 22.9145 16.6545C22.9145 16.2621 22.5974 15.9438 22.2066 15.9438C21.8158 15.9438 21.4987 16.2621 21.4987 16.6545C21.4987 17.0469 21.8158 17.3652 22.2066 17.3652Z" fill="#8FD123"/>
<path d="M22.0886 9.57133C22.4794 9.57133 22.7965 9.25303 22.7965 8.86068C22.7965 8.46826 22.4794 8.15002 22.0886 8.15002C21.6978 8.15002 21.3807 8.46826 21.3807 8.86068C21.3807 9.25303 21.6978 9.57133 22.0886 9.57133Z" fill="#33BBBD"/>
<path d="M25.6931 14.0877C25.4077 13.7793 24.9804 13.6208 24.5437 13.7056C24.1073 13.7908 23.7704 14.0992 23.6206 14.4923C23.9064 14.8003 24.3336 14.9593 24.77 14.874C25.2064 14.7888 25.5433 14.4809 25.6931 14.0877Z" fill="#33BBBD"/>
<path d="M26.555 11.9852C26.4873 11.8152 22.8634 12.2444 22.4841 11.8068C22.1048 11.3693 22.6466 10.703 23.1658 10.2119C23.7227 9.67967 24.5669 8.40817 24.2982 8.30511C23.7496 8.98526 23.4457 9.35467 22.8091 9.96663C22.2142 10.5381 21.5008 11.3245 20.7659 11.7609C20.0802 12.1691 19.5769 12.5861 18.7319 12.4497C17.8869 12.3134 17.4644 12.0094 18.1449 11.1335C18.8254 10.2579 21.1643 8.16399 21.1643 8.16399C21.1238 7.80453 19.9079 8.69315 19.2662 9.18659C18.9511 9.43076 18.2008 9.92379 18.1952 9.6868C18.1901 9.44736 18.5908 8.74031 18.9368 8.26903C19.6609 7.28053 20.8923 5.62459 22.2546 4.14423C22.0842 3.9631 19.6748 6.42679 19.6748 6.24134C19.6748 6.05582 19.7548 5.35587 19.8714 4.71457C19.9792 4.126 20.5056 2.36066 20.5341 1.75979C20.3205 1.85055 19.6106 4.62659 19.2765 5.52313C18.9443 6.41217 17.0771 9.50884 16.8341 9.83582C16.5246 10.252 16.1584 10.0193 16.0422 9.42597C15.9709 9.06256 15.374 7.07009 15.701 6.4193C16.028 5.76808 16.7406 5.52075 17.1469 4.08716C17.5531 2.65356 17.1901 0.178755 16.9332 0C16.9388 0.842243 16.909 1.31905 16.8064 2.15534C16.7335 2.75463 16.7386 3.11135 16.5511 3.68011C16.3954 4.16246 16.2697 4.42722 15.9994 4.84815C15.701 5.16324 15.5658 5.37251 15.2305 5.2984C15.0335 5.25242 14.9142 5.16483 14.8064 4.9833C14.5187 4.56119 13.2737 1.43875 13.1025 1.30201C13.1025 1.52674 14.0863 4.96943 14.1731 5.88103C14.2472 6.61308 14.1235 7.16914 14.0529 7.90244L13.7846 9.15807C13.594 9.22662 13.1497 8.39427 12.7632 7.81166C12.4268 7.30276 12.2456 7.00586 11.9551 6.46364C12.0411 6.07326 12.1041 5.61429 12.0629 4.97934C12.0213 4.34439 12.9551 3.62184 12.9202 3.40821C12.8968 3.26553 11.9416 4.07328 11.9064 3.92465C11.8608 3.73321 11.8045 3.53702 11.7363 3.33726C11.3003 2.05983 10.1763 1.07015 9.75176 0.801419C9.99234 1.40348 10.7434 2.11532 11.0384 3.14583C11.3332 4.17673 11.4636 5.21992 11.1973 5.43038C10.8568 5.70228 9.99833 5.34279 9.28768 4.90641C8.26862 4.27622 7.95038 3.4205 7.6325 3.41693C7.31463 3.41337 8.3416 4.50848 8.48463 5.12956C8.62814 5.75103 6.38161 5.3527 6.18304 5.32496C5.83704 5.28294 5.76332 5.46328 6.03839 5.55523C6.45178 5.69277 7.20048 5.82673 7.61309 5.88103C8.97651 6.06098 10.1687 6.02766 11.2738 7.09268C12.1929 7.98052 12.5199 8.80136 12.7173 10.0994C12.8239 10.7962 11.8822 10.5497 10.1442 9.48739C9.51717 9.13068 8.73276 8.46204 8.62616 7.3063C8.49535 6.99399 8.33009 8.1779 8.53262 8.63251C8.66103 8.92102 7.01461 8.30235 6.38874 8.43627C6.02251 8.52549 8.22266 8.74821 9.23734 9.61544C9.77914 10.0787 11.5552 11.3831 12.2305 12.0102C12.4212 12.187 12.3198 12.6907 12.0308 12.7815C11.6721 12.894 11.0304 12.839 10.359 12.749C9.14692 12.5873 8.62736 11.9916 8.07286 11.4961C7.51794 11.0007 6.79464 9.73037 6.79464 9.73037C6.79464 10.1334 6.84971 10.7391 7.10101 11.1572C7.32254 11.5223 7.46724 11.7244 7.73874 12.0522C7.73874 12.0522 5.50807 11.5024 4.91394 11.5024C5.00034 11.728 6.38005 12.0308 7.03438 12.4073C7.81124 12.8505 10.4466 14.1941 10.3641 14.4188C10.1886 14.8829 7.97375 14.7331 7.20923 14.8211C6.42523 14.9147 5.19337 15.0498 5.17751 15.3055C5.16166 15.5611 6.36298 15.2812 7.05781 15.347C8.39151 15.4723 9.31578 15.4822 10.4632 15.7945C11.2714 16.0145 12.2428 16.6264 12.4228 17.0086C12.6011 17.3764 12.8009 17.7267 12.7632 18.8543L12.6903 21.6431C4.01264 21.7544 0 22.4702 0 22.4702C0 22.4702 4.01264 23.186 12.6903 23.2974L12.7632 26.0862C12.8009 27.2142 12.6011 27.5641 12.4228 27.9324C12.2428 28.3144 11.2714 28.9259 10.4632 29.1463C9.31578 29.4587 8.39151 29.4686 7.05781 29.5938C6.36298 29.6593 5.16166 29.3798 5.17751 29.6355C5.19337 29.8911 6.42523 30.0263 7.20923 30.1198C7.97375 30.2078 10.1886 30.058 10.3641 30.5221C10.4466 30.7468 7.81124 32.0904 7.03438 32.5336C6.38005 32.9101 5.00034 33.2125 4.91394 33.4384C5.50807 33.4384 7.73874 32.8887 7.73874 32.8887C7.46724 33.216 7.32254 33.4182 7.10101 33.7836C6.84971 34.2018 6.79464 34.8074 6.79464 35.2101C6.79464 35.2101 7.51794 33.9398 8.07286 33.4448C8.62736 32.9493 9.14692 32.3536 10.359 32.1915C11.0304 32.102 11.6721 32.0464 12.0308 32.1594C12.3198 32.2501 12.4212 32.7539 12.2305 32.9307C11.5552 33.5577 9.77914 34.8621 9.23734 35.3251C8.22266 36.1923 6.02251 36.4154 6.38874 36.5046C7.01461 36.6386 8.66103 36.0195 8.53262 36.308C8.33009 36.7626 8.49535 37.9469 8.62616 37.6346C8.73276 36.4788 9.51717 35.8102 10.1442 35.4535C11.8822 34.3913 12.8239 34.1447 12.7173 34.8415C12.5199 36.1395 12.1929 36.9604 11.2738 37.8482C10.1687 38.9132 8.97651 38.8799 7.61309 39.0598C7.20048 39.1137 6.45178 39.2481 6.03839 39.3857C5.76332 39.4772 5.83704 39.6579 6.18304 39.6159C6.38161 39.5878 8.62814 39.1894 8.48463 39.8109C8.3416 40.4324 7.31463 41.5275 7.6325 41.524C7.95038 41.5204 8.26862 40.6647 9.28768 40.0345C9.99833 39.5981 10.8568 39.2386 11.1973 39.5101C11.4636 39.721 11.3332 40.7641 11.0384 41.7946C10.7434 42.8256 9.99234 43.5374 9.75176 44.1395C10.1763 43.8703 11.3003 42.8806 11.7363 41.6036C11.8045 41.4038 11.8608 41.2077 11.9064 41.0162C11.9416 40.8676 12.8968 41.675 12.9202 41.5327C12.9551 41.3186 12.0213 40.5965 12.0629 39.9616C12.1041 39.3266 12.0411 38.8676 11.9551 38.4768C12.2456 37.9346 12.4268 37.6377 12.7632 37.1288C13.1497 36.5462 13.594 35.7142 13.7846 35.7824L14.0529 37.0385C14.1235 37.7717 14.2472 38.3278 14.1731 39.0598C14.0863 39.971 13.1025 43.4142 13.1025 43.6388C13.2737 43.5021 14.5187 40.3797 14.8064 39.9572C14.9142 39.776 15.0335 39.6881 15.2305 39.6425C15.5658 39.5684 15.701 39.7776 15.9994 40.0924C16.2697 40.5137 16.3954 40.7784 16.5511 41.2607C16.7386 41.8291 16.7335 42.1863 16.8064 42.7855C16.909 43.6218 16.9388 44.0986 16.9332 44.9405C17.1901 44.7621 17.5531 42.2873 17.1469 40.8537C16.7406 39.4201 16.028 39.1724 15.701 38.5216C15.374 37.8708 15.9709 35.8784 16.0422 35.5145C16.1584 34.9216 16.5246 34.6889 16.8341 35.1051C17.0771 35.4321 18.9443 38.5283 19.2765 39.4177C19.6106 40.3143 20.3205 43.0903 20.5341 43.1811C20.5056 42.5802 19.9792 40.8145 19.8714 40.2263C19.7548 39.585 19.6748 38.885 19.6748 38.6996C19.6748 38.5141 22.0842 40.9774 22.2546 40.7962C20.8923 39.3159 19.6609 37.66 18.9368 36.6718C18.5908 36.2006 18.1901 35.2985 18.1952 35.0587C18.2008 34.8217 18.9511 35.5101 19.2662 35.7539C19.9079 36.2473 21.1238 37.1364 21.1643 36.7769C21.1643 36.7769 18.8254 34.683 18.1449 33.807C17.4644 32.9315 17.8869 32.6275 18.7319 32.4911C19.5769 32.3548 20.0802 32.7717 20.7659 33.18C21.5008 33.6164 22.2142 34.4023 22.8091 34.9739C23.4457 35.5858 23.7496 35.9552 24.2982 36.6354C24.5669 36.5323 23.7227 35.2612 23.1658 34.7285C22.6466 34.2379 22.1048 33.5716 22.4841 33.134C22.8634 32.6964 26.4873 33.1253 26.555 32.9556C26.6375 32.7353 23.5301 32.0659 21.991 32.0536C20.4524 32.0413 18.4909 30.6346 18.8052 30.1103C19.1195 29.5859 20.6308 29.922 23.2348 30.9854C23.6367 31.023 22.4825 30.2367 22.1488 29.9743C23.1972 29.937 24.8911 29.1531 24.8452 28.9259C23.1972 29.4499 22.2733 29.4876 21.0394 29.1131C19.8056 28.7385 17.6577 28.0171 17.6577 27.7773C17.6577 27.1055 17.6332 26.2229 17.7172 25.0101L17.806 23.2903C26.115 23.1571 29.9601 22.4702 29.9601 22.4702C29.9601 22.4702 26.115 21.7834 17.806 21.6506L17.7172 19.9308C17.6332 18.718 17.6577 17.8353 17.6577 17.1631C17.6577 16.9234 19.8056 16.2024 21.0394 15.8278C22.2733 15.4533 23.1972 15.4905 24.8452 16.0149C24.8911 15.7878 23.1972 15.0038 22.1488 14.9661C22.4825 14.7042 23.6367 13.9178 23.2348 13.9551C20.6308 15.0189 19.1195 15.3549 18.8052 14.8306C18.4909 14.3062 20.4524 12.8996 21.991 12.8873C23.5301 12.875 26.6375 12.2056 26.555 11.9852Z" fill="white"/>
</g>
<defs>
<clipPath id="clip0">
<rect width="29.9601" height="45" fill="white"/>
</clipPath>
</defs>
</svg>
